<svg version="1.1" xmlns="http://www.w3.org/2000/svg" xmlns:xlink="http://www.w3.org/1999/xlink" width="997" height="342"><defs/><g><g><rect fill="#C0C0C0" stroke="none" x="359" y="335" width="208" height="80" transform="matrix(1 0 0 1 -222 -286)" fill-opacity="0.2"/></g><g><rect fill="#ffffff" stroke="none" x="352" y="328" width="208" height="80" transform="matrix(1 0 0 1 -222 -286)"/></g><g><path fill="none" stroke="#000000" paint-order="fill stroke markers" d=" M 130 42 L 338 42 L 338 122 L 130 122 L 130 42 Z Z" stroke-miterlimit="10" stroke-dasharray=""/></g><g><path fill="none" stroke="#000000" paint-order="fill stroke markers" d=" M 130 67 L 338 67" stroke-miterlimit="10" stroke-dasharray=""/></g><g><path fill="none" stroke="#000000" paint-order="fill stroke markers" d=" M 130 105 L 338 105" stroke-miterlimit="10" stroke-dasharray=""/></g><g><g><path fill="none" stroke="none"/><text fill="#000000" stroke="none" font-family="Arial" font-size="13px" font-style="italic" font-weight="bold" text-decoration="undefined" x="456.5" y="341.5" text-anchor="middle" dominant-baseline="central" transform="matrix(1 0 0 1 -222 -286)">Operation</text></g></g><g><g><path fill="none" stroke="none"/><text fill="#000000" stroke="none" font-family="Arial" font-size="13px" font-style="normal" font-weight="normal" text-decoration="undefined" x="357" y="364.5" text-anchor="start" dominant-baseline="central" transform="matrix(1 0 0 1 -222 -286)">#date: Date</text></g></g><g><g><path fill="none" stroke="none"/><text fill="#000000" stroke="none" font-family="Arial" font-size="13px" font-style="normal" font-weight="normal" text-decoration="undefined" x="357" y="379.5" text-anchor="start" dominant-baseline="central" transform="matrix(1 0 0 1 -222 -286)">#amount: Double</text></g></g><g><rect fill="#C0C0C0" stroke="none" x="871" y="303" width="200" height="146" transform="matrix(1 0 0 1 -222 -286)" fill-opacity="0.2"/></g><g><rect fill="#ffffff" stroke="none" x="864" y="296" width="200" height="146" transform="matrix(1 0 0 1 -222 -286)"/></g><g><path fill="none" stroke="#000000" paint-order="fill stroke markers" d=" M 642 10 L 842 10 L 842 156 L 642 156 L 642 10 Z Z" stroke-miterlimit="10" stroke-dasharray=""/></g><g><path fill="none" stroke="#000000" paint-order="fill stroke markers" d=" M 642 35 L 842 35" stroke-miterlimit="10" stroke-dasharray=""/></g><g><path fill="none" stroke="#000000" paint-order="fill stroke markers" d=" M 642 103 L 842 103" stroke-miterlimit="10" stroke-dasharray=""/></g><g><g><path fill="none" stroke="none"/><text fill="#000000" stroke="none" font-family="Arial" font-size="13px" font-style="italic" font-weight="bold" text-decoration="undefined" x="964.5" y="309.5" text-anchor="middle" dominant-baseline="central" transform="matrix(1 0 0 1 -222 -286)">Account</text></g></g><g><g><path fill="none" stroke="none"/><text fill="#000000" stroke="none" font-family="Arial" font-size="13px" font-style="normal" font-weight="normal" text-decoration="undefined" x="869" y="332.5" text-anchor="start" dominant-baseline="central" transform="matrix(1 0 0 1 -222 -286)">#username: String</text></g></g><g><g><path fill="none" stroke="none"/><text fill="#000000" stroke="none" font-family="Arial" font-size="13px" font-style="normal" font-weight="normal" text-decoration="undefined" x="869" y="347.5" text-anchor="start" dominant-baseline="central" transform="matrix(1 0 0 1 -222 -286)">#balanace: String</text></g></g><g><g><path fill="none" stroke="none"/><text fill="#000000" stroke="none" font-family="Arial" font-size="13px" font-style="normal" font-weight="normal" text-decoration="undefined" x="869" y="362.5" text-anchor="start" dominant-baseline="central" transform="matrix(1 0 0 1 -222 -286)">#code: String</text></g></g><g><g><path fill="none" stroke="none"/><text fill="#000000" stroke="none" font-family="Arial" font-size="13px" font-style="normal" font-weight="normal" text-decoration="undefined" x="869" y="377.5" text-anchor="start" dominant-baseline="central" transform="matrix(1 0 0 1 -222 -286)">#balance: Double</text></g></g><g><g><path fill="none" stroke="none"/><text fill="#000000" stroke="none" font-family="Arial" font-size="13px" font-style="italic" font-weight="normal" text-decoration="undefined" x="869" y="400.5" text-anchor="start" dominant-baseline="central" transform="matrix(1 0 0 1 -222 -286)">+withdraw()</text></g></g><g><g><path fill="none" stroke="none"/><text fill="#000000" stroke="none" font-family="Arial" font-size="13px" font-style="italic" font-weight="normal" text-decoration="undefined" x="869" y="415.5" text-anchor="start" dominant-baseline="central" transform="matrix(1 0 0 1 -222 -286)">+calculateInterest()</text></g></g><g><g><path fill="none" stroke="none"/><text fill="#000000" stroke="none" font-family="Arial" font-size="13px" font-style="italic" font-weight="normal" text-decoration="undefined" x="869" y="430.5" text-anchor="start" dominant-baseline="central" transform="matrix(1 0 0 1 -222 -286)">+showDetails()</text></g></g><g><rect fill="#C0C0C0" stroke="none" x="751" y="567" width="192" height="58" transform="matrix(1 0 0 1 -222 -286)" fill-opacity="0.2"/></g><g><rect fill="#ffffff" stroke="none" x="744" y="560" width="192" height="58" transform="matrix(1 0 0 1 -222 -286)"/></g><g><path fill="none" stroke="#000000" paint-order="fill stroke markers" d=" M 522 274 L 714 274 L 714 332 L 522 332 L 522 274 Z Z" stroke-miterlimit="10" stroke-dasharray=""/></g><g><path fill="none" stroke="#000000" paint-order="fill stroke markers" d=" M 522 299 L 714 299" stroke-miterlimit="10" stroke-dasharray=""/></g><g><path fill="none" stroke="#000000" paint-order="fill stroke markers" d=" M 522 322 L 714 322" stroke-miterlimit="10" stroke-dasharray=""/></g><g><g><path fill="none" stroke="none"/><text fill="#000000" stroke="none" font-family="Arial" font-size="13px" font-style="normal" font-weight="bold" text-decoration="undefined" x="840.5" y="573.5" text-anchor="middle" dominant-baseline="central" transform="matrix(1 0 0 1 -222 -286)">CurrentAccount</text></g></g><g><g><path fill="none" stroke="none"/><text fill="#000000" stroke="none" font-family="Arial" font-size="13px" font-style="normal" font-weight="normal" text-decoration="undefined" x="749" y="596.5" text-anchor="start" dominant-baseline="central" transform="matrix(1 0 0 1 -222 -286)">-overdraft: Double</text></g></g><g><rect fill="#C0C0C0" stroke="none" x="1007" y="567" width="208" height="58" transform="matrix(1 0 0 1 -222 -286)" fill-opacity="0.2"/></g><g><rect fill="#ffffff" stroke="none" x="1000" y="560" width="208" height="58" transform="matrix(1 0 0 1 -222 -286)"/></g><g><path fill="none" stroke="#000000" paint-order="fill stroke markers" d=" M 778 274 L 986 274 L 986 332 L 778 332 L 778 274 Z Z" stroke-miterlimit="10" stroke-dasharray=""/></g><g><path fill="none" stroke="#000000" paint-order="fill stroke markers" d=" M 778 299 L 986 299" stroke-miterlimit="10" stroke-dasharray=""/></g><g><path fill="none" stroke="#000000" paint-order="fill stroke markers" d=" M 778 322 L 986 322" stroke-miterlimit="10" stroke-dasharray=""/></g><g><g><path fill="none" stroke="none"/><text fill="#000000" stroke="none" font-family="Arial" font-size="13px" font-style="normal" font-weight="bold" text-decoration="undefined" x="1104.5" y="573.5" text-anchor="middle" dominant-baseline="central" transform="matrix(1 0 0 1 -222 -286)">SavingsAccount</text></g></g><g><g><path fill="none" stroke="none"/><text fill="#000000" stroke="none" font-family="Arial" font-size="13px" font-style="normal" font-weight="normal" text-decoration="undefined" x="1005" y="596.5" text-anchor="start" dominant-baseline="central" transform="matrix(1 0 0 1 -222 -286)">-taxInterest: Double</text></g></g><g><rect fill="#C0C0C0" stroke="none" x="239" y="487" width="184" height="58" transform="matrix(1 0 0 1 -222 -286)" fill-opacity="0.2"/></g><g><rect fill="#ffffff" stroke="none" x="232" y="480" width="184" height="58" transform="matrix(1 0 0 1 -222 -286)"/></g><g><path fill="none" stroke="#000000" paint-order="fill stroke markers" d=" M 10 194 L 194 194 L 194 252 L 10 252 L 10 194 Z Z" stroke-miterlimit="10" stroke-dasharray=""/></g><g><path fill="none" stroke="#000000" paint-order="fill stroke markers" d=" M 10 219 L 194 219" stroke-miterlimit="10" stroke-dasharray=""/></g><g><path fill="none" stroke="#000000" paint-order="fill stroke markers" d=" M 10 242 L 194 242" stroke-miterlimit="10" stroke-dasharray=""/></g><g><g><path fill="none" stroke="none"/><text fill="#000000" stroke="none" font-family="Arial" font-size="13px" font-style="normal" font-weight="bold" text-decoration="undefined" x="324.5" y="493.5" text-anchor="middle" dominant-baseline="central" transform="matrix(1 0 0 1 -222 -286)">Withdrawal</text></g></g><g><g><path fill="none" stroke="none"/><text fill="#000000" stroke="none" font-family="Arial" font-size="13px" font-style="normal" font-weight="normal" text-decoration="undefined" x="237" y="516.5" text-anchor="start" dominant-baseline="central" transform="matrix(1 0 0 1 -222 -286)">-destination: String</text></g></g><g><rect fill="#C0C0C0" stroke="none" x="519" y="487" width="200" height="58" transform="matrix(1 0 0 1 -222 -286)" fill-opacity="0.2"/></g><g><rect fill="#ffffff" stroke="none" x="512" y="480" width="200" height="58" transform="matrix(1 0 0 1 -222 -286)"/></g><g><path fill="none" stroke="#000000" paint-order="fill stroke markers" d=" M 290 194 L 490 194 L 490 252 L 290 252 L 290 194 Z Z" stroke-miterlimit="10" stroke-dasharray=""/></g><g><path fill="none" stroke="#000000" paint-order="fill stroke markers" d=" M 290 219 L 490 219" stroke-miterlimit="10" stroke-dasharray=""/></g><g><path fill="none" stroke="#000000" paint-order="fill stroke markers" d=" M 290 242 L 490 242" stroke-miterlimit="10" stroke-dasharray=""/></g><g><g><path fill="none" stroke="none"/><text fill="#000000" stroke="none" font-family="Arial" font-size="13px" font-style="normal" font-weight="bold" text-decoration="undefined" x="612.5" y="493.5" text-anchor="middle" dominant-baseline="central" transform="matrix(1 0 0 1 -222 -286)">Deposit</text></g></g><g><g><path fill="none" stroke="none"/><text fill="#000000" stroke="none" font-family="Arial" font-size="13px" font-style="normal" font-weight="normal" text-decoration="undefined" x="517" y="516.5" text-anchor="start" dominant-baseline="central" transform="matrix(1 0 0 1 -222 -286)">-source: String</text></g></g><g><path fill="none" stroke="#000000" paint-order="fill stroke markers" d=" M 130 193 L 196 123" stroke-miterlimit="10" stroke-dasharray=""/></g><g><path fill="#FFFFFF" stroke="none" paint-order="stroke fill markers" d=" M 188.18214958358766 143.56407583302985 L 196 123 L 175.93094748588294 132.01294242662254"/></g><g><path fill="none" stroke="#000000" paint-order="fill stroke markers" d=" M 188.18214958358766 143.56407583302985 L 196 123 L 175.93094748588294 132.01294242662254 L 188.18214958358766 143.56407583302985" stroke-miterlimit="10" stroke-dasharray=""/></g><g><path fill="none" stroke="#000000" paint-order="fill stroke markers" d=" M 357 193 L 279 123" stroke-miterlimit="10" stroke-dasharray=""/></g><g><path fill="#FFFFFF" stroke="none" paint-order="stroke fill markers" d=" M 299.7501405238238 130.30969686386283 L 279 123 L 288.50382885411415 142.84130129582502"/></g><g><path fill="none" stroke="#000000" paint-order="fill stroke markers" d=" M 299.7501405238238 130.30969686386283 L 279 123 L 288.50382885411415 142.84130129582502 L 299.7501405238238 130.30969686386283" stroke-miterlimit="10" stroke-dasharray=""/></g><g><path fill="none" stroke="#000000" paint-order="fill stroke markers" d=" M 635 273 L 700 157" stroke-miterlimit="10" stroke-dasharray=""/></g><g><path fill="#FFFFFF" stroke="none" paint-order="stroke fill markers" d=" M 697.408890608945 178.84687968849528 L 700 157 L 682.7197322032872 170.6158857542905"/></g><g><path fill="none" stroke="#000000" paint-order="fill stroke markers" d=" M 697.408890608945 178.84687968849528 L 700 157 L 682.7197322032872 170.6158857542905 L 697.408890608945 178.84687968849528" stroke-miterlimit="10" stroke-dasharray=""/></g><g><path fill="none" stroke="#000000" paint-order="fill stroke markers" d=" M 863 273 L 789 157" stroke-miterlimit="10" stroke-dasharray=""/></g><g><path fill="#FFFFFF" stroke="none" paint-order="stroke fill markers" d=" M 807.02906470321 169.60764950050043 L 789 157 L 792.8335194534637 178.66342836671782"/></g><g><path fill="none" stroke="#000000" paint-order="fill stroke markers" d=" M 807.02906470321 169.60764950050043 L 789 157 L 792.8335194534637 178.66342836671782 L 807.02906470321 169.60764950050043" stroke-miterlimit="10" stroke-dasharray=""/></g><g><path fill="none" stroke="#000000" paint-order="fill stroke markers" d=" M 641 83 L 339 82" stroke-miterlimit="10" stroke-dasharray=""/></g><g><path fill="#FFFFFF" stroke="none" paint-order="stroke fill markers" d=" M 349.1765578682084 77.82415637804712 L 339 82 L 349.148680420005 86.24314573549003 L 360.9998793922466 82.07284728275579"/></g><g><path fill="none" stroke="#000000" paint-order="fill stroke markers" d=" M 349.1765578682084 77.82415637804712 L 339 82 L 349.148680420005 86.24314573549003 L 360.9998793922466 82.07284728275579 L 349.1765578682084 77.82415637804712" stroke-miterlimit="10" stroke-dasharray=""/></g><g><rect fill="#ffffff" stroke="none" x="829" y="377" width="14.82177734375" height="13" transform="matrix(1 0 0 1 -222 -286)"/></g><g><g><path fill="none" stroke="none"/><text fill="#000000" stroke="none" font-family="Arial" font-size="13px" font-style="normal" font-weight="normal" text-decoration="undefined" x="836.410888671875" y="383.5" text-anchor="middle" dominant-baseline="central" transform="matrix(1 0 0 1 -222 -286)">+1</text></g></g><g><rect fill="#ffffff" stroke="none" x="580" y="377" width="12.65087890625" height="13" transform="matrix(1 0 0 1 -222 -286)"/></g><g><g><path fill="none" stroke="none"/><text fill="#000000" stroke="none" font-family="Arial" font-size="13px" font-style="normal" font-weight="normal" text-decoration="undefined" x="586.325439453125" y="383.5" text-anchor="middle" dominant-baseline="central" transform="matrix(1 0 0 1 -222 -286)">+*</text></g></g></g></svg>